<svg version="1.1" id="Layer_1" xmlns="http://www.w3.org/2000/svg" xmlns:xlink="http://www.w3.org/1999/xlink" x="0px" y="0px"
	 width="100%" viewBox="0 0 1024 1024" enable-background="new 0 0 1024 1024" xml:space="preserve">
<path fill="#000000" opacity="1.000000" stroke="none" 
	d="
M225.000000,817.847534 
	C312.330475,817.832642 399.160980,817.841736 485.991333,817.729919 
	C489.944611,817.724792 492.349213,818.957764 494.561127,822.287964 
	C501.563873,832.831055 508.945557,843.122620 516.189087,853.505554 
	C516.755859,854.317932 517.497742,855.039307 517.249634,856.371155 
	C515.747925,858.012878 513.623779,857.259216 511.766174,857.259949 
	C405.602539,857.301575 299.437866,857.550171 193.276031,857.115540 
	C167.717911,857.010925 150.035019,842.759949 138.338409,820.690369 
	C133.568924,811.691162 131.665909,801.968811 131.666687,791.802002 
	C131.682602,583.641296 131.671616,375.480591 131.675491,167.319901 
	C131.676071,136.147766 157.489166,107.143600 188.500351,103.618248 
	C205.935394,101.636230 223.454849,102.821808 240.930023,102.801109 
	C343.426727,102.679695 445.923676,102.726646 548.420532,102.785744 
	C562.371155,102.793793 574.579346,107.665588 584.371216,117.646614 
	C621.946838,155.948090 659.387390,194.381973 696.899597,232.745712 
	C707.617004,243.706345 718.325562,254.677734 729.184570,265.497192 
	C740.253662,276.525818 746.071350,290.018677 746.148804,305.347076 
	C746.462891,367.510376 746.289246,429.676178 746.281860,491.841034 
	C746.281677,493.467377 746.495483,495.160889 745.315918,497.002197 
	C738.814575,495.485901 733.082336,492.065765 727.029297,489.494751 
	C722.125122,487.411682 717.411011,484.834259 712.410583,483.038544 
	C707.865295,481.406281 706.609253,478.644226 706.622681,473.980713 
	C706.767639,423.649261 706.711670,373.317261 706.700867,322.985382 
	C706.699219,315.281525 706.676331,315.285065 699.206116,315.286133 
	C664.040466,315.291199 628.874878,315.292297 593.709229,315.298401 
	C568.318115,315.302826 544.950378,294.597473 541.661499,269.367249 
	C540.948181,263.894958 540.699768,258.444916 540.705872,252.946167 
	C540.743713,218.947189 540.743774,184.948166 540.732178,150.949158 
	C540.729736,143.821869 540.248901,143.359741 533.000916,143.358444 
	C422.504181,143.338608 312.007477,143.313690 201.510742,143.332626 
	C184.161224,143.335602 170.309723,157.113922 170.308258,174.372406 
	C170.290848,378.199890 170.297668,582.027344 170.324020,785.854858 
	C170.326401,804.245544 183.275681,817.447388 201.508484,817.757629 
	C209.170609,817.888062 216.836060,817.824036 225.000000,817.847534 
M585.179932,179.379395 
	C581.407288,177.437210 581.329712,180.030563 581.329102,182.571289 
	C581.322815,208.048904 581.204163,233.527634 581.415039,259.003571 
	C581.490051,268.054840 586.836548,274.458069 595.202942,276.315979 
	C598.750977,277.103912 602.445251,277.573242 606.076233,277.592346 
	C629.055359,277.713196 652.035461,277.680756 675.015137,277.651398 
	C676.902527,277.648987 679.108582,278.158386 680.253052,275.768097 
	C679.384583,273.260773 677.286194,271.765381 675.561584,270.020386 
	C660.000549,254.275696 644.413330,238.556717 628.796021,222.867828 
	C614.473694,208.479858 600.104553,194.138489 585.179932,179.379395 
z"/>
<path fill="#000000" opacity="1.000000" stroke="none" 
	d="
M481.834290,672.168945 
	C484.874420,652.535767 489.922699,633.908936 498.836060,616.610962 
	C528.826721,558.408508 573.932373,518.748657 639.564453,506.825348 
	C705.943176,494.766388 764.523193,512.316772 814.142151,558.237061 
	C842.558289,584.534973 863.018738,616.177551 871.603027,654.118408 
	C887.525879,724.493896 871.702637,787.146790 822.369202,840.397522 
	C793.475281,871.585754 758.067566,892.133423 716.117432,899.900391 
	C674.692566,907.570190 634.218018,903.847717 595.733643,885.571899 
	C544.648071,861.311829 510.291290,821.825562 491.080444,769.016785 
	C481.989410,744.026550 478.919922,717.954102 479.826324,691.438965 
	C480.041351,685.147949 481.107483,678.886047 481.834290,672.168945 
M724.972900,549.578674 
	C698.897461,541.413879 672.361816,540.028564 645.606567,545.047424 
	C613.091797,551.146606 586.024963,567.254761 563.370483,591.149109 
	C527.894409,628.566711 513.596680,673.153992 519.596069,723.990234 
	C523.892334,760.395020 539.536255,791.853210 565.658386,817.672424 
	C601.932373,853.525757 645.762695,868.177612 696.346130,862.713013 
	C724.782959,859.640869 750.955627,849.854614 773.492798,832.418457 
	C825.711487,792.018860 846.527100,737.898682 834.900574,673.631592 
	C823.669250,611.548767 784.469849,571.406250 724.972900,549.578674 
z"/>
<path fill="#000000" opacity="1.000000" stroke="none" 
	d="
M300.999939,406.333588 
	C286.167542,406.330933 271.834717,406.396912 257.502960,406.302734 
	C247.538345,406.237244 239.755066,398.058868 239.721024,387.867920 
	C239.688400,378.104980 247.951889,369.711670 257.822357,369.709595 
	C376.980896,369.684509 496.139435,369.682007 615.297974,369.702148 
	C625.933594,369.703949 633.322021,377.365356 633.331970,388.162415 
	C633.341614,398.680878 625.717896,406.306946 614.980591,406.309509 
	C510.487030,406.334503 405.993500,406.329987 300.999939,406.333588 
z"/>
<path fill="#000000" opacity="1.000000" stroke="none" 
	d="
M328.999939,501.276306 
	C305.338867,501.263275 282.177368,501.332886 259.016937,501.203949 
	C245.341934,501.127777 236.563019,488.861664 240.792191,476.067474 
	C243.276794,468.550964 250.753372,463.717896 260.024414,463.715424 
	C312.011902,463.701477 363.999420,463.701538 415.986908,463.699341 
	C456.477203,463.697632 496.968781,463.876678 537.456848,463.574799 
	C547.532166,463.499695 557.579590,469.683289 557.969360,482.141418 
	C558.315430,493.199249 549.305969,501.270874 537.450073,501.273041 
	C468.133362,501.285767 398.816681,501.277008 328.999939,501.276306 
z"/>
<path fill="#000000" opacity="1.000000" stroke="none" 
	d="
M408.000061,276.703278 
	C433.493866,276.704346 458.487701,276.687531 483.481476,276.714752 
	C495.146851,276.727448 503.304382,284.630341 503.321686,295.833679 
	C503.338409,306.662323 495.204529,314.298462 483.458099,314.302338 
	C408.643311,314.327026 333.828491,314.329254 259.013702,314.310089 
	C248.043533,314.307281 239.809647,306.242432 239.709824,295.580048 
	C239.613205,285.257751 248.136200,276.774475 259.036804,276.757965 
	C308.524475,276.682953 358.012268,276.711914 408.000061,276.703278 
z"/>
<path fill="#000000" opacity="1.000000" stroke="none" 
	d="
M413.000000,595.305481 
	C361.500580,595.305542 310.501160,595.300171 259.501740,595.311096 
	C251.836136,595.312744 245.962891,592.146851 242.281952,585.395752 
	C238.504166,578.467041 238.871048,571.599182 243.509109,565.179321 
	C247.425797,559.757996 252.979294,557.716370 259.566742,557.721313 
	C311.399445,557.760254 363.232178,557.734375 415.064911,557.727234 
	C426.898102,557.725586 438.731354,557.697021 450.564484,557.721802 
	C461.290894,557.744202 469.178009,565.284851 469.315643,575.584290 
	C469.461884,586.527893 461.715302,595.061707 450.998505,595.248230 
	C438.502472,595.465759 425.999786,595.303040 413.000000,595.305481 
z"/>
<path fill="#000000" opacity="1.000000" stroke="none" 
	d="
M262.101257,689.303162 
	C249.622238,689.284546 243.019760,684.705811 240.319794,674.534607 
	C237.447128,663.712830 246.054245,651.801941 257.280701,651.777283 
	C313.385864,651.653809 369.491577,651.664856 425.596832,651.768494 
	C435.890686,651.787476 444.227875,660.658447 444.198547,670.844055 
	C444.170624,680.543274 435.180908,689.272034 424.908142,689.280640 
	C370.800537,689.326111 316.692810,689.302124 262.101257,689.303162 
z"/>
<path fill="#000000" opacity="1.000000" stroke="none" 
	d="
M610.139099,617.796204 
	C655.928650,617.794983 701.236816,617.776306 746.544922,617.788208 
	C757.501770,617.791077 765.010437,622.110596 768.084595,630.038147 
	C772.801208,642.201050 764.166565,655.002136 750.879822,655.264526 
	C740.722534,655.465149 730.558472,655.327515 720.397400,655.327271 
	C682.918030,655.326416 645.438599,655.352600 607.959290,655.298218 
	C594.841370,655.279236 586.775208,645.857727 588.757263,633.108582 
	C590.216309,623.723633 598.471436,617.673218 610.139099,617.796204 
z"/>
<path fill="#000000" opacity="1.000000" stroke="none" 
	d="
M767.504272,777.926941 
	C773.476868,790.611145 763.460815,804.771667 748.230286,804.557678 
	C701.127014,803.895569 654.008667,804.335938 606.896179,804.288696 
	C597.532715,804.279297 589.924072,797.718079 588.761536,788.961670 
	C587.516418,779.582275 592.740356,770.644897 601.557495,768.407898 
	C606.157837,767.240723 611.114441,767.146240 615.911194,767.137024 
	C657.862366,767.056702 699.813782,767.095642 741.765137,767.136719 
	C744.589111,767.139465 747.422058,767.679810 750.234924,767.568237 
	C758.129639,767.255005 763.481018,771.082886 767.504272,777.926941 
z"/>
<path fill="#000000" opacity="1.000000" stroke="none" 
	d="
M633.000000,693.721802 
	C672.471191,693.717773 711.442383,693.683960 750.413513,693.725220 
	C764.114502,693.739746 772.900452,706.261536 768.139343,718.802185 
	C765.460876,725.857239 758.331116,730.292236 749.367798,730.299927 
	C715.226379,730.329102 681.085022,730.315247 646.943604,730.313721 
	C633.786682,730.313171 620.628845,730.394775 607.473145,730.263550 
	C599.042358,730.179382 592.586914,725.556335 589.784729,718.025879 
	C587.195435,711.067444 589.260681,703.281189 595.128357,698.102356 
	C598.512634,695.115356 602.483948,693.698730 607.018860,693.721436 
	C615.512329,693.764038 624.006287,693.726074 633.000000,693.721802 
z"/>
</svg>